<svg width="55" height="60" viewBox="0 0 55 60" fill="none" xmlns="http://www.w3.org/2000/svg">
<path d="M12.5219 11.3903C12.7041 10.4794 12.7952 10.024 13.0401 9.67762C13.2065 9.44227 13.4218 9.24566 13.6712 9.10127C14.0383 8.88875 14.5001 8.83927 15.4238 8.74031L26.6581 7.53663C26.7939 7.52208 26.8618 7.51481 26.9299 7.51218C26.9766 7.51037 27.0234 7.51021 27.0702 7.51168C27.1383 7.51383 27.2063 7.52063 27.3421 7.53421L39.6104 8.76104C40.5219 8.85219 40.9777 8.89777 41.343 9.10355C41.5913 9.2434 41.8068 9.4347 41.9752 9.66463C42.2229 10.0029 42.3222 10.4501 42.521 11.3444L42.9302 13.1857C42.9579 13.3105 42.9718 13.373 42.9816 13.436C42.9884 13.4793 42.9937 13.5229 42.9976 13.5665C43.0033 13.6301 43.0049 13.694 43.0081 13.8219L43.8395 46.6616C43.8947 48.8421 43.9223 49.9324 43.4426 50.5101C43.1237 50.894 42.6727 51.1449 42.1783 51.2134C41.4345 51.3164 40.5227 50.718 38.6991 49.5213L29.7675 43.6599C29.0879 43.214 28.7482 42.991 28.3776 42.9133C28.1252 42.8605 27.865 42.8569 27.6112 42.9028C27.2386 42.9703 26.8929 43.1838 26.2013 43.611L16.2208 49.7754C14.4169 50.8896 13.5149 51.4467 12.7831 51.3315C12.2964 51.2549 11.855 51.0013 11.5437 50.6193C11.0758 50.0451 11.1029 48.9853 11.1573 46.8656L11.9927 14.2857C11.9956 14.1722 11.997 14.1154 12.0017 14.0589C12.0049 14.0201 12.0092 13.9814 12.0147 13.9429C12.0226 13.8868 12.0338 13.8311 12.0561 13.7197L12.5219 11.3903Z" fill="#1D1D27"/>
<path d="M11.458 19.5C11.458 15.2996 11.458 13.1994 12.2073 11.5951C12.8665 10.1839 13.9182 9.0365 15.2118 8.31745C16.6825 7.5 18.6076 7.5 22.458 7.5H32.5413C36.3917 7.5 38.3169 7.5 39.7875 8.31745C41.0811 9.0365 42.1329 10.1839 42.792 11.5951C43.5413 13.1994 43.5413 15.2996 43.5413 19.5V52.5L27.4997 42.5L11.458 52.5V19.5Z" stroke="#1D1D27" stroke-width="2" stroke-linecap="round" stroke-linejoin="round"/>
<path d="M27 17C27.5523 17 28 17.4477 28 18V24H34C34.5523 24 35 24.4477 35 25C35 25.5523 34.5523 26 34 26H28V32C28 32.5523 27.5523 33 27 33C26.4477 33 26 32.5523 26 32V26H20C19.4477 26 19 25.5523 19 25C19 24.4477 19.4477 24 20 24H26V18C26 17.4477 26.4477 17 27 17Z" fill="white"/>
</svg>
