<svg width="34" height="34" viewBox="0 0 34 34" fill="none" xmlns="http://www.w3.org/2000/svg">
<g id="Iconly/Light-outline/Category">
<g id="Category">
<path id="Category_2" fill-rule="evenodd" clip-rule="evenodd" d="M11.3524 2.83337H7.04894C4.71874 2.83337 2.83331 4.73517 2.83331 7.07702V11.4179C2.83331 13.7587 4.71914 15.6615 7.04894 15.6615H11.3524C13.6822 15.6615 15.568 13.7587 15.568 11.4179V7.07702C15.568 4.73517 13.6826 2.83337 11.3524 2.83337ZM7.04895 4.81012H11.3524C12.587 4.81012 13.5913 5.82309 13.5913 7.07702V11.4179C13.5913 12.671 12.5865 13.6848 11.3524 13.6848H7.04895C5.81484 13.6848 4.81006 12.671 4.81006 11.4179V7.07702C4.81006 5.82309 5.81431 4.81012 7.04895 4.81012ZM26.9524 2.83337H22.6475C20.3173 2.83337 18.4319 4.73517 18.4319 7.07702V11.4179C18.4319 13.7587 20.3177 15.6615 22.6475 15.6615H26.9524C29.2811 15.6615 31.1666 13.7585 31.1666 11.4179V7.07702C31.1666 4.73544 29.2815 2.83337 26.9524 2.83337ZM22.6475 4.81012H26.9524C28.1858 4.81012 29.1899 5.82324 29.1899 7.07702V11.4179C29.1899 12.6708 28.1853 13.6848 26.9524 13.6848H22.6475C21.4134 13.6848 20.4087 12.671 20.4087 11.4179V7.07702C20.4087 5.82309 21.4129 4.81012 22.6475 4.81012ZM7.04894 18.3386H11.3524C13.6829 18.3386 15.568 20.2407 15.568 22.5836V26.9231C15.568 29.2649 13.6826 31.1667 11.3524 31.1667H7.04894C4.71874 31.1667 2.83331 29.2649 2.83331 26.9231V22.5836C2.83331 20.2407 4.71847 18.3386 7.04894 18.3386ZM11.3524 20.3153H7.04895C5.81417 20.3153 4.81006 21.3284 4.81006 22.5836V26.9231C4.81006 28.177 5.81431 29.19 7.04895 29.19H11.3524C12.587 29.19 13.5913 28.177 13.5913 26.9231V22.5836C13.5913 21.3284 12.5872 20.3153 11.3524 20.3153ZM26.9524 18.3386H22.6475C20.3171 18.3386 18.4319 20.2407 18.4319 22.5836V26.9231C18.4319 29.2649 20.3173 31.1667 22.6475 31.1667H26.9524C29.2815 31.1667 31.1666 29.2646 31.1666 26.9231V22.5836C31.1666 20.2409 29.2818 18.3386 26.9524 18.3386ZM22.6475 20.3153H26.9524C28.1859 20.3153 29.1899 21.3286 29.1899 22.5836V26.9231C29.1899 28.1768 28.1858 29.19 26.9524 29.19H22.6475C21.4129 29.19 20.4087 28.177 20.4087 26.9231V22.5836C20.4087 21.3284 21.4128 20.3153 22.6475 20.3153Z" fill="white"/>
</g>
</g>
</svg>
