<svg width="39" height="40" viewBox="0 0 39 40" fill="none" xmlns="http://www.w3.org/2000/svg">
<path d="M15.5999 39.7744C16.2551 39.7595 16.8838 39.5166 17.3748 39.0886C17.8659 38.6607 18.1876 38.0753 18.2831 37.4359H12.8127C12.911 38.0926 13.2478 38.6918 13.7605 39.122C14.2732 39.5521 14.9269 39.784 15.5999 39.7744Z" fill="#575B5F"/>
<path d="M30.6904 33.159C29.6875 32.2773 28.8095 31.2665 28.08 30.1539C27.2836 28.618 26.8063 26.9408 26.676 25.2205V20.1539C26.6718 19.5384 26.6161 18.9244 26.5096 18.318C25.691 18.1566 24.9043 17.8657 24.18 17.4564C24.4561 18.3332 24.5964 19.246 24.596 20.1641V25.2308C24.7235 27.3293 25.3088 29.3759 26.312 31.2308C27.03 32.3528 27.882 33.3859 28.8496 34.3077H2.2152C3.18283 33.3859 4.03478 32.3528 4.7528 31.2308C5.756 29.3759 6.34133 27.3293 6.4688 25.2308V20.1539C6.46333 18.9669 6.69532 17.7905 7.1515 16.692C7.60768 15.5936 8.27908 14.5947 9.12727 13.7525C9.97545 12.9103 10.9838 12.2414 12.0944 11.784C13.2051 11.3267 14.3964 11.0899 15.6 11.0872C17.3615 11.0886 19.0835 11.6023 20.5504 12.5641C20.3887 11.9785 20.2979 11.376 20.28 10.7692V10.1231C19.1941 9.59628 18.0275 9.24975 16.8272 9.09745V7.80514C16.8272 7.442 16.6809 7.09373 16.4205 6.83695C16.1602 6.58017 15.807 6.43591 15.4388 6.43591C15.0706 6.43591 14.7174 6.58017 14.4571 6.83695C14.1967 7.09373 14.0504 7.442 14.0504 7.80514V9.14873C11.3627 9.52263 8.903 10.8428 7.12527 12.8656C5.34754 14.8883 4.37188 17.4771 4.3784 20.1539V25.2205C4.24815 26.9408 3.77081 28.618 2.9744 30.1539C2.25772 31.264 1.3938 32.2746 0.405602 33.159C0.294667 33.2551 0.205757 33.3734 0.144788 33.506C0.0838192 33.6387 0.0521889 33.7826 0.052002 33.9282V35.3231C0.052002 35.5951 0.161573 35.856 0.356611 36.0483C0.551649 36.2407 0.816177 36.3487 1.092 36.3487H30.004C30.2798 36.3487 30.5444 36.2407 30.7394 36.0483C30.9344 35.856 31.044 35.5951 31.044 35.3231V33.9282C31.0438 33.7826 31.0122 33.6387 30.9512 33.506C30.8902 33.3734 30.8013 33.2551 30.6904 33.159Z" fill="#575B5F"/>
<path d="M31.2 15.3846C35.5078 15.3846 39 11.9407 39 7.69231C39 3.44396 35.5078 0 31.2 0C26.8922 0 23.4 3.44396 23.4 7.69231C23.4 11.9407 26.8922 15.3846 31.2 15.3846Z" fill="#EB5757"/>
</svg>
