<svg width="30" height="30" viewBox="0 0 30 30" fill="none" xmlns="http://www.w3.org/2000/svg">
<path d="M8.75 10.625H15M8.75 15H18.75M12.1047 22.5H20.25C22.3502 22.5 23.4003 22.5 24.2025 22.0913C24.9081 21.7317 25.4817 21.1581 25.8413 20.4525C26.25 19.6503 26.25 18.6002 26.25 16.5V9.75C26.25 7.6498 26.25 6.5997 25.8413 5.79754C25.4817 5.09193 24.9081 4.51825 24.2025 4.15873C23.4003 3.75 22.3502 3.75 20.25 3.75H9.75C7.6498 3.75 6.5997 3.75 5.79754 4.15873C5.09193 4.51825 4.51825 5.09193 4.15873 5.79754C3.75 6.5997 3.75 7.6498 3.75 9.75V25.4194C3.75 26.0854 3.75 26.4185 3.88654 26.5895C4.00528 26.7383 4.18534 26.8248 4.37567 26.8246C4.59453 26.8244 4.85459 26.6163 5.3747 26.2002L8.35652 23.8148C8.96565 23.3275 9.27021 23.0838 9.60936 22.9106C9.91025 22.7568 10.2305 22.6445 10.5615 22.5766C10.9346 22.5 11.3246 22.5 12.1047 22.5Z" stroke="#7E7E7E" stroke-width="2" stroke-linecap="round" stroke-linejoin="round"/>
</svg>
