<svg width="37" height="37" viewBox="0 0 37 37" fill="none" xmlns="http://www.w3.org/2000/svg">
<path d="M18.4997 20.042C19.3511 20.042 20.0413 19.3518 20.0413 18.5003C20.0413 17.6489 19.3511 16.9587 18.4997 16.9587C17.6482 16.9587 16.958 17.6489 16.958 18.5003C16.958 19.3518 17.6482 20.042 18.4997 20.042Z" stroke="white" stroke-width="2" stroke-linecap="round" stroke-linejoin="round"/>
<path d="M18.4997 9.25033C19.3511 9.25033 20.0413 8.5601 20.0413 7.70866C20.0413 6.85722 19.3511 6.16699 18.4997 6.16699C17.6482 6.16699 16.958 6.85722 16.958 7.70866C16.958 8.5601 17.6482 9.25033 18.4997 9.25033Z" stroke="white" stroke-width="2" stroke-linecap="round" stroke-linejoin="round"/>
<path d="M18.4997 30.8337C19.3511 30.8337 20.0413 30.1434 20.0413 29.292C20.0413 28.4406 19.3511 27.7503 18.4997 27.7503C17.6482 27.7503 16.958 28.4406 16.958 29.292C16.958 30.1434 17.6482 30.8337 18.4997 30.8337Z" stroke="white" stroke-width="2" stroke-linecap="round" stroke-linejoin="round"/>
</svg>
