<svg width="34" height="34" viewBox="0 0 34 34" fill="none" xmlns="http://www.w3.org/2000/svg">
<path d="M15.5833 5.6667H9.63331C7.25309 5.6667 6.06298 5.6667 5.15385 6.12993C4.35416 6.53739 3.704 7.18756 3.29654 7.98725C2.83331 8.89637 2.83331 10.0865 2.83331 12.4667V24.3667C2.83331 26.7469 2.83331 27.937 3.29654 28.8462C3.704 29.6459 4.35416 30.296 5.15385 30.7035C6.06298 31.1667 7.25309 31.1667 9.63331 31.1667H21.5333C23.9135 31.1667 25.1036 31.1667 26.0128 30.7035C26.8125 30.296 27.4626 29.6459 27.8701 28.8462C28.3333 27.937 28.3333 26.7469 28.3333 24.3667V18.4167M11.3333 22.6667H13.7055C14.3986 22.6667 14.7451 22.6667 15.0711 22.5884C15.3602 22.519 15.6366 22.4045 15.8901 22.2492C16.1761 22.074 16.4211 21.829 16.9111 21.3389L30.4583 7.79171C31.6319 6.6181 31.6319 4.71531 30.4583 3.5417C29.2847 2.3681 27.3819 2.3681 26.2083 3.5417L12.6611 17.0889C12.171 17.579 11.926 17.824 11.7508 18.1099C11.5954 18.3634 11.481 18.6398 11.4116 18.9289C11.3333 19.255 11.3333 19.6015 11.3333 20.2945V22.6667Z" stroke="#5F6265" stroke-width="2" stroke-linecap="round" stroke-linejoin="round"/>
</svg>
