<svg width="34" height="34" viewBox="0 0 34 34" fill="none" xmlns="http://www.w3.org/2000/svg">
<path d="M29.75 12.75L20.6146 19.2753C20.337 19.4736 20.1982 19.5727 20.0496 19.6026C19.9186 19.6289 19.7828 19.6177 19.6579 19.5702C19.5162 19.5162 19.3956 19.3956 19.1545 19.1545L14.8455 14.8455C14.6044 14.6044 14.4838 14.4838 14.3421 14.4298C14.2172 14.3823 14.0814 14.3711 13.9504 14.3974C13.8018 14.4273 13.663 14.5264 13.3854 14.7247L4.25 21.25M11.05 29.75H22.95C25.3302 29.75 26.5203 29.75 27.4295 29.2868C28.2291 28.8793 28.8793 28.2291 29.2868 27.4295C29.75 26.5203 29.75 25.3302 29.75 22.95V11.05C29.75 8.66978 29.75 7.47967 29.2868 6.57054C28.8793 5.77085 28.2291 5.12068 27.4295 4.71322C26.5203 4.25 25.3302 4.25 22.95 4.25H11.05C8.66978 4.25 7.47967 4.25 6.57054 4.71322C5.77085 5.12068 5.12068 5.77085 4.71322 6.57054C4.25 7.47967 4.25 8.66978 4.25 11.05V22.95C4.25 25.3302 4.25 26.5203 4.71322 27.4295C5.12068 28.2291 5.77085 28.8793 6.57054 29.2868C7.47967 29.75 8.66978 29.75 11.05 29.75Z" stroke="#5F6265" stroke-width="2" stroke-linecap="round" stroke-linejoin="round"/>
</svg>
