<svg width="34" height="34" viewBox="0 0 34 34" fill="none" xmlns="http://www.w3.org/2000/svg">
<path d="M11.3333 9.91667L4.25 17M4.25 17L11.3333 24.0833M4.25 17L21.25 17M17 9.91667C17 8.59921 17 7.94048 17.1448 7.40002C17.5378 5.93338 18.6834 4.7878 20.15 4.39482C20.6905 4.25 21.3492 4.25 22.6667 4.25H23.375C25.3553 4.25 26.3454 4.25 27.1264 4.57351C28.1678 5.00486 28.9951 5.83223 29.4265 6.8736C29.75 7.65462 29.75 8.64475 29.75 10.625L29.75 23.375C29.75 25.3553 29.75 26.3454 29.4265 27.1264C28.9951 28.1678 28.1678 28.9951 27.1264 29.4265C26.3454 29.75 25.3553 29.75 23.375 29.75H22.6667C21.3492 29.75 20.6905 29.75 20.15 29.6052C18.6834 29.2122 17.5378 28.0666 17.1448 26.6C17 26.0595 17 25.4008 17 24.0833" stroke="#5F6265" stroke-width="2" stroke-linecap="round" stroke-linejoin="round"/>
</svg>
