<svg width="56" height="55" viewBox="0 0 56 55" fill="none" xmlns="http://www.w3.org/2000/svg">
<path d="M22.1829 20.5456C22.1829 19.4518 22.1829 18.9049 22.4115 18.5996C22.6107 18.3335 22.9156 18.167 23.2471 18.1434C23.6276 18.1162 24.0876 18.4119 25.0077 19.0034L35.8257 25.9578C36.6241 26.4711 37.0233 26.7277 37.1611 27.054C37.2816 27.3391 37.2816 27.6609 37.1611 27.946C37.0233 28.2723 36.6241 28.5289 35.8257 29.0422L25.0077 35.9966C24.0876 36.5881 23.6276 36.8838 23.2471 36.8566C22.9156 36.833 22.6107 36.6665 22.4115 36.4004C22.1829 36.0951 22.1829 35.5482 22.1829 34.4544V20.5456Z" stroke="white" stroke-width="3" stroke-linecap="round" stroke-linejoin="round"/>
<path d="M7.28711 17.875C7.28711 14.0246 7.28711 12.0995 8.03644 10.6288C8.69557 9.3352 9.74731 8.28346 11.0409 7.62433C12.5116 6.875 14.4367 6.875 18.2871 6.875H37.5371C41.3875 6.875 43.3127 6.875 44.7833 7.62433C46.0769 8.28346 47.1287 9.3352 47.7878 10.6288C48.5371 12.0995 48.5371 14.0246 48.5371 17.875V37.125C48.5371 40.9754 48.5371 42.9005 47.7878 44.3712C47.1287 45.6648 46.0769 46.7165 44.7833 47.3757C43.3127 48.125 41.3875 48.125 37.5371 48.125H18.2871C14.4367 48.125 12.5116 48.125 11.0409 47.3757C9.74731 46.7165 8.69557 45.6648 8.03644 44.3712C7.28711 42.9005 7.28711 40.9754 7.28711 37.125V17.875Z" stroke="white" stroke-width="3" stroke-linecap="round" stroke-linejoin="round"/>
</svg>
