<svg width="52" height="55" viewBox="0 0 52 55" fill="none" xmlns="http://www.w3.org/2000/svg">
<path d="M20.6699 20.5456C20.6699 19.4518 20.6699 18.9049 20.8825 18.5996C21.0679 18.3335 21.3516 18.167 21.6601 18.1434C22.0141 18.1162 22.4421 18.4119 23.2982 19.0034L33.3642 25.9578C34.1071 26.4711 34.4785 26.7277 34.6068 27.054C34.7189 27.3391 34.7189 27.6609 34.6068 27.946C34.4785 28.2723 34.1071 28.5289 33.3642 29.0422L23.2982 35.9966C22.4421 36.5881 22.0141 36.8838 21.6601 36.8566C21.3516 36.833 21.0679 36.6665 20.8825 36.4004C20.6699 36.0951 20.6699 35.5482 20.6699 34.4544V20.5456Z" stroke="#2A2A39" stroke-width="3" stroke-linecap="round" stroke-linejoin="round"/>
<path d="M6.80957 17.875C6.80957 14.0246 6.80957 12.0995 7.50681 10.6288C8.12012 9.3352 9.09874 8.28346 10.3024 7.62433C11.6708 6.875 13.4622 6.875 17.0449 6.875H34.9566C38.5393 6.875 40.3307 6.875 41.6991 7.62433C42.9027 8.28346 43.8814 9.3352 44.4947 10.6288C45.1919 12.0995 45.1919 14.0246 45.1919 17.875V37.125C45.1919 40.9754 45.1919 42.9005 44.4947 44.3712C43.8814 45.6648 42.9027 46.7165 41.6991 47.3757C40.3307 48.125 38.5393 48.125 34.9566 48.125H17.0449C13.4622 48.125 11.6708 48.125 10.3024 47.3757C9.09874 46.7165 8.12012 45.6648 7.50681 44.3712C6.80957 42.9005 6.80957 40.9754 6.80957 37.125V17.875Z" stroke="#2A2A39" stroke-width="3" stroke-linecap="round" stroke-linejoin="round"/>
</svg>
