<svg width="34" height="34" viewBox="0 0 34 34" fill="none" xmlns="http://www.w3.org/2000/svg">
<path d="M17.0007 21.25C19.3479 21.25 21.2507 19.3473 21.2507 17C21.2507 14.6528 19.3479 12.75 17.0007 12.75C14.6535 12.75 12.7507 14.6528 12.7507 17C12.7507 19.3473 14.6535 21.25 17.0007 21.25Z" stroke="#5F6265" stroke-width="2" stroke-linecap="round" stroke-linejoin="round"/>
<path d="M13.1602 27.4424L13.9882 29.3046C14.2343 29.8589 14.636 30.3299 15.1445 30.6604C15.653 30.9909 16.2465 31.1668 16.853 31.1667C17.4595 31.1668 18.053 30.9909 18.5615 30.6604C19.07 30.3299 19.4717 29.8589 19.7178 29.3046L20.5458 27.4424C20.8405 26.7817 21.3363 26.2308 21.9625 25.8684C22.5926 25.5049 23.3215 25.3501 24.045 25.4261L26.0708 25.6417C26.6738 25.7055 27.2824 25.593 27.8228 25.3178C28.3631 25.0426 28.812 24.6165 29.1151 24.0912C29.4185 23.5663 29.563 22.9646 29.5312 22.3591C29.4993 21.7536 29.2924 21.1704 28.9356 20.6802L27.7362 19.0322C27.3091 18.441 27.0809 17.7294 27.0845 17C27.0844 16.2727 27.3147 15.564 27.7425 14.9758L28.9419 13.3277C29.2987 12.8375 29.5056 12.2543 29.5375 11.6488C29.5693 11.0433 29.4248 10.4416 29.1214 9.91671C28.8183 9.39146 28.3694 8.9654 27.8291 8.6902C27.2887 8.41499 26.6801 8.30246 26.0771 8.36624L24.0513 8.58189C23.3278 8.65787 22.5989 8.50305 21.9688 8.13958C21.3414 7.77506 20.8455 7.2213 20.5521 6.55763L19.7178 4.6955C19.4717 4.1412 19.07 3.67022 18.5615 3.33969C18.053 3.00916 17.4595 2.83328 16.853 2.83337C16.2465 2.83328 15.653 3.00916 15.1445 3.33969C14.636 3.67022 14.2343 4.1412 13.9882 4.6955L13.1602 6.55763C12.8669 7.2213 12.371 7.77506 11.7436 8.13958C11.1135 8.50305 10.3845 8.65787 9.66108 8.58189L7.62895 8.36624C7.02592 8.30246 6.41733 8.41499 5.87698 8.6902C5.33663 8.9654 4.88773 9.39146 4.58469 9.91671C4.28127 10.4416 4.13672 11.0433 4.16857 11.6488C4.20042 12.2543 4.40731 12.8375 4.76414 13.3277L5.96358 14.9758C6.39133 15.564 6.62168 16.2727 6.62155 17C6.62168 17.7274 6.39133 18.436 5.96358 19.0243L4.76414 20.6724C4.40731 21.1626 4.20042 21.7458 4.16857 22.3513C4.13672 22.9567 4.28127 23.5584 4.58469 24.0834C4.88802 24.6084 5.33698 25.0342 5.87726 25.3093C6.41753 25.5845 7.02597 25.6972 7.62895 25.6338L9.65479 25.4182C10.3782 25.3422 11.1072 25.497 11.7373 25.8605C12.367 26.224 12.8652 26.7779 13.1602 27.4424Z" stroke="#5F6265" stroke-width="2" stroke-linecap="round" stroke-linejoin="round"/>
</svg>
